<svg width="24" height="24" viewBox="0 0 24 24" fill="none" xmlns="http://www.w3.org/2000/svg">
<path d="M22.125 20.7222H20.4998V17.1857C20.4998 17.1364 20.4901 17.0876 20.4713 17.0421C20.4524 16.9966 20.4248 16.9553 20.39 16.9204C20.3552 16.8856 20.3138 16.858 20.2683 16.8392C20.2228 16.8203 20.174 16.8106 20.1248 16.8107H17.6865C17.6372 16.8106 17.5885 16.8203 17.543 16.8392C17.4975 16.858 17.4561 16.8856 17.4213 16.9204C17.3864 16.9553 17.3588 16.9966 17.34 17.0421C17.3212 17.0876 17.3115 17.1364 17.3115 17.1857V20.7222H15.9375V14.917C15.9375 14.8677 15.9278 14.819 15.909 14.7735C15.8902 14.7279 15.8626 14.6866 15.8277 14.6518C15.7929 14.6169 15.7516 14.5893 15.706 14.5705C15.6605 14.5516 15.6118 14.542 15.5625 14.542H13.1239C13.0746 14.542 13.0259 14.5516 12.9804 14.5705C12.9349 14.5893 12.8935 14.6169 12.8587 14.6518C12.8238 14.6866 12.7962 14.7279 12.7774 14.7735C12.7586 14.819 12.7489 14.8677 12.7489 14.917V20.7222H11.3749V12.9189C11.3749 12.8697 11.3652 12.8209 11.3464 12.7754C11.3275 12.7299 11.2999 12.6886 11.2651 12.6537C11.2302 12.6189 11.1889 12.5913 11.1434 12.5725C11.0979 12.5536 11.0491 12.5439 10.9999 12.5439H8.56162C8.51238 12.5439 8.46361 12.5536 8.4181 12.5725C8.3726 12.5913 8.33126 12.6189 8.29643 12.6537C8.26161 12.6886 8.23398 12.7299 8.21514 12.7754C8.1963 12.8209 8.18661 12.8697 8.18662 12.9189V20.7222H6.81244V9.54248C6.81245 9.49323 6.80276 9.44446 6.78392 9.39896C6.76508 9.35346 6.73746 9.31211 6.70263 9.27729C6.66781 9.24246 6.62646 9.21484 6.58096 9.196C6.53546 9.17716 6.48669 9.16747 6.43744 9.16748H3.99921C3.94996 9.16747 3.90119 9.17716 3.85568 9.196C3.81018 9.21484 3.76884 9.24246 3.73401 9.27729C3.69919 9.31211 3.67157 9.35346 3.65272 9.39896C3.63388 9.44446 3.62419 9.49323 3.62421 9.54248V20.7222H1.875C1.77554 20.7222 1.68016 20.7617 1.60984 20.832C1.53951 20.9023 1.5 20.9977 1.5 21.0972C1.5 21.1966 1.53951 21.292 1.60984 21.3623C1.68016 21.4327 1.77554 21.4722 1.875 21.4722C1.875 21.4722 21.0419 21.4754 22.125 21.4722C22.2232 21.4703 22.3167 21.4299 22.3855 21.3598C22.4542 21.2897 22.4927 21.1954 22.4928 21.0972C22.4928 20.999 22.4542 20.9047 22.3855 20.8346C22.3167 20.7644 22.2232 20.7241 22.125 20.7222ZM4.37421 20.7222V9.91748H6.06244V20.7222H4.37421ZM8.93664 20.7222V13.2939H10.6249V20.7222H8.93664ZM13.4989 20.7222V15.292H15.1875V20.7222H13.4989ZM18.0615 20.7222V17.5607H19.7498V20.7222H18.0615Z" fill="#FDFDFD"/>
<path d="M17.6866 13.4092C18.9465 13.4078 20.1544 12.9066 21.0452 12.0157C21.9361 11.1247 22.4372 9.9168 22.4385 8.65689C22.362 3.54615 15.5381 2.10771 13.3782 6.66477C11.8874 9.70967 14.2812 13.4699 17.6866 13.4092ZM17.6866 12.6592C17.0484 12.6608 16.4192 12.5093 15.8516 12.2176C15.2841 11.9258 14.7947 11.5023 14.4246 10.9824C14.0545 10.4625 13.8144 9.86154 13.7245 9.22976C13.6345 8.59798 13.6973 7.95384 13.9076 7.35134L17.5313 8.99819C17.5806 9.01872 17.6332 9.03013 17.6866 9.03188H21.6695C21.5752 10.0234 21.115 10.9442 20.3787 11.6149C19.6423 12.2855 18.6825 12.6578 17.6866 12.6592ZM21.6695 8.28189H18.0616V4.67393C18.9885 4.76238 19.8557 5.17091 20.5141 5.82933C21.1725 6.48776 21.5811 7.35495 21.6695 8.28189ZM17.3116 4.67393V8.07459L14.2182 6.66875C14.5367 6.1131 14.9839 5.64195 15.5221 5.29485C16.0603 4.94775 16.674 4.73482 17.3116 4.67393Z" fill="#FDFDFD"/>
<path d="M3.00002 3.27734H11.5884C11.6866 3.27543 11.7801 3.23507 11.8489 3.16495C11.9176 3.09483 11.9561 3.00054 11.9561 2.90233C11.9561 2.80412 11.9176 2.70983 11.8489 2.63972C11.7801 2.5696 11.6866 2.52925 11.5884 2.52734H3.00002C2.90186 2.52931 2.80839 2.56968 2.73966 2.63979C2.67094 2.7099 2.63245 2.80417 2.63245 2.90234C2.63245 3.00052 2.67094 3.09478 2.73966 3.1649C2.80839 3.23501 2.90186 3.27538 3.00002 3.27734Z" fill="#FDFDFD"/>
<path d="M3.00002 4.98877H11.5884C11.6866 4.98685 11.7801 4.9465 11.8489 4.87638C11.9176 4.80626 11.9561 4.71197 11.9561 4.61376C11.9561 4.51555 11.9176 4.42126 11.8489 4.35114C11.7801 4.28103 11.6866 4.24068 11.5884 4.23877H3.00002C2.90186 4.24073 2.80839 4.2811 2.73966 4.35122C2.67094 4.42133 2.63245 4.51559 2.63245 4.61377C2.63245 4.71195 2.67094 4.80621 2.73966 4.87632C2.80839 4.94643 2.90186 4.98681 3.00002 4.98877Z" fill="#FDFDFD"/>
<path d="M3.00002 6.70019H11.5884C11.6866 6.69823 11.78 6.65785 11.8488 6.58774C11.9175 6.51762 11.956 6.42336 11.956 6.32518C11.956 6.227 11.9175 6.13274 11.8487 6.06263C11.78 5.99252 11.6865 5.95216 11.5884 5.9502H3.00002C2.90186 5.95216 2.80839 5.99253 2.73966 6.06264C2.67094 6.13275 2.63245 6.22702 2.63245 6.32519C2.63245 6.42337 2.67094 6.51764 2.73966 6.58775C2.80839 6.65786 2.90186 6.69823 3.00002 6.70019Z" fill="#FDFDFD"/>
</svg>
