<svg width="24" height="24" viewBox="0 0 24 24" fill="none" xmlns="http://www.w3.org/2000/svg">
<g clip-path="url(#clip0_29166_8418)">
<path d="M24 12.521C23.725 18.958 18.453 24 12 24C7.95999 24 4.30099 22.016 2.06299 18.689C2.02999 18.788 1.99999 18.89 1.99999 19V23.5C1.99999 23.776 1.77599 24 1.49999 24C1.22399 24 0.999991 23.776 0.999991 23.5V19C0.999991 17.897 1.89699 17 2.99999 17H7.49999C7.77599 17 7.99999 17.224 7.99999 17.5C7.99999 17.776 7.77599 18 7.49999 18H2.99999C2.93799 18 2.88399 18.024 2.82599 18.035C4.87099 21.144 8.25799 23 12 23C17.916 23 22.748 18.378 23 12.479C23.012 12.21 23.233 12 23.5 12C23.507 12 23.514 12 23.521 12C23.796 12.012 24.011 12.245 24 12.521ZM12 1C15.742 1 19.13 2.856 21.174 5.965C21.115 5.976 21.061 6 21 6H16.5C16.224 6 16 6.224 16 6.5C16 6.776 16.224 7 16.5 7H21C22.103 7 23 6.103 23 5V0.5C23 0.224 22.776 0 22.5 0C22.224 0 22 0.224 22 0.5V5C22 5.11 21.97 5.212 21.937 5.311C19.699 1.984 16.04 0 12 0C5.54699 0 0.274991 5.042 -9.39964e-06 11.479C-0.0120094 11.755 0.202991 11.988 0.478991 12C0.486991 12 0.493991 12 0.499991 12C0.766991 12 0.987991 11.79 0.999991 11.521C1.25199 5.622 6.08399 1 12 1ZM8.82299 20.423C9.83699 20.806 10.906 21 12 21C16.963 21 21 16.962 21 12C21 11.098 20.867 10.208 20.604 9.353C20.524 9.089 20.248 8.94 19.979 9.022C19.715 9.104 19.567 9.383 19.649 9.647C19.882 10.406 20.001 11.198 20.001 12C20.001 16.411 16.412 20 12.001 20C11.028 20 10.078 19.828 9.17799 19.488C8.91699 19.39 8.62999 19.521 8.53299 19.779C8.43499 20.037 8.56599 20.326 8.82399 20.424L8.82299 20.423ZM12 4C12.973 4 13.923 4.172 14.823 4.512C15.083 4.61 15.371 4.479 15.468 4.221C15.566 3.963 15.435 3.674 15.177 3.576C14.163 3.193 13.094 2.999 12 2.999C7.03699 3 2.99999 7.038 2.99999 12C2.99999 12.902 3.13299 13.792 3.39599 14.647C3.46099 14.862 3.65999 15 3.87399 15C3.92299 15 3.97199 14.993 4.02099 14.978C4.28499 14.896 4.43299 14.617 4.35099 14.353C4.11799 13.594 3.99899 12.802 3.99899 12C3.99899 7.589 7.58799 4 11.999 4H12ZM11.158 9H12.842C13.418 9 14 9.309 14 10C14 10.276 14.224 10.5 14.5 10.5C14.776 10.5 15 10.276 15 10C15 8.841 14.093 8 12.842 8H12.5V7.5C12.5 7.224 12.276 7 12 7C11.724 7 11.5 7.224 11.5 7.5V8H11.158C9.96799 8 8.99999 8.968 8.99999 10.158C8.99999 11.217 9.75899 12.112 10.795 12.285L13.032 12.7C13.593 12.794 14 13.274 14 13.842C14 14.481 13.48 15 12.842 15H11.158C10.582 15 9.99999 14.691 9.99999 14C9.99999 13.724 9.77599 13.5 9.49999 13.5C9.22399 13.5 8.99999 13.724 8.99999 14C8.99999 15.159 9.90699 16 11.158 16H11.5V16.5C11.5 16.776 11.724 17 12 17C12.276 17 12.5 16.776 12.5 16.5V16H12.842C14.032 16 15 15.032 15 13.842C15 12.783 14.241 11.888 13.205 11.715L10.968 11.3C10.407 11.206 9.99999 10.726 9.99999 10.158C9.99999 9.519 10.52 9 11.158 9Z" fill="#FDFDFD"/>
</g>
<defs>
<clipPath id="clip0_29166_8418">
<rect width="24" height="24" fill="white"/>
</clipPath>
</defs>
</svg>
