<svg width="16" height="16" viewBox="0 0 16 16" fill="none" xmlns="http://www.w3.org/2000/svg">
<g clip-path="url(#clip0_29166_9144)">
<path d="M4.6875 12.25V13.5C4.6875 14.8785 5.80896 16 7.1875 16H13.4688C14.8473 16 15.9688 14.8785 15.9688 13.5V2.5C15.9688 1.12146 14.8473 0 13.4688 0H7.1875C5.80896 0 4.6875 1.12146 4.6875 2.5V3.75C4.6875 4.09521 4.96729 4.375 5.3125 4.375C5.65771 4.375 5.9375 4.09521 5.9375 3.75V2.5C5.9375 1.81079 6.49829 1.25 7.1875 1.25H13.4688C14.158 1.25 14.7188 1.81079 14.7188 2.5V13.5C14.7188 14.1892 14.158 14.75 13.4688 14.75H7.1875C6.49829 14.75 5.9375 14.1892 5.9375 13.5V12.25C5.9375 11.9048 5.65771 11.625 5.3125 11.625C4.96729 11.625 4.6875 11.9048 4.6875 12.25ZM0.426392 6.92639L1.82593 5.52686C2.07007 5.28271 2.46582 5.28271 2.70984 5.52686C2.95398 5.77087 2.95398 6.16663 2.70984 6.41064L1.71436 7.40625H9.21875C9.56396 7.40625 9.84375 7.68604 9.84375 8.03125C9.84375 8.37646 9.56396 8.65625 9.21875 8.65625H1.71436L2.70984 9.65186C2.95398 9.89587 2.95398 10.2916 2.70984 10.5356C2.58777 10.6577 2.42786 10.7188 2.26794 10.7188C2.10791 10.7188 1.948 10.6577 1.82593 10.5356L0.426392 9.13611C-0.182861 8.52686 -0.182861 7.53564 0.426392 6.92639Z" fill="#FDFDFD"/>
</g>
<defs>
<clipPath id="clip0_29166_9144">
<rect width="16" height="16" fill="white" transform="matrix(-1 0 0 1 16 0)"/>
</clipPath>
</defs>
</svg>
