<svg width="24" height="24" viewBox="0 0 24 24" fill="none" xmlns="http://www.w3.org/2000/svg">
<g clip-path="url(#clip0_29166_8941)">
<path d="M20.5 5C19.121 5 18 3.879 18 2.5C18 1.121 19.121 0 20.5 0C21.879 0 23 1.121 23 2.5C23 3.879 21.879 5 20.5 5ZM20.5 1C19.673 1 19 1.673 19 2.5C19 3.327 19.673 4 20.5 4C21.327 4 22 3.327 22 2.5C22 1.673 21.327 1 20.5 1Z" fill="#FDFDFD"/>
<path d="M23.5 6.00023C23.372 6.00023 23.244 5.95123 23.146 5.85423L21.646 4.35423C21.451 4.15923 21.451 3.84223 21.646 3.64723C21.841 3.45223 22.158 3.45223 22.353 3.64723L23.853 5.14723C24.048 5.34223 24.048 5.65923 23.853 5.85423C23.756 5.95123 23.628 6.00023 23.5 6.00023Z" fill="#FDFDFD"/>
<path d="M14.5 6H1.5C0.673 6 0 5.327 0 4.5V1.5C0 0.673 0.673 0 1.5 0H14.5C15.327 0 16 0.673 16 1.5V4.5C16 5.327 15.327 6 14.5 6ZM1.5 1C1.225 1 1 1.225 1 1.5V4.5C1 4.775 1.225 5 1.5 5H14.5C14.775 5 15 4.775 15 4.5V1.5C15 1.225 14.775 1 14.5 1H1.5Z" fill="#FDFDFD"/>
<path d="M3 24C1.346 24 0 22.654 0 21C0 19.346 1.346 18 3 18C4.654 18 6 19.346 6 21C6 22.654 4.654 24 3 24ZM3 19C1.897 19 1 19.897 1 21C1 22.103 1.897 23 3 23C4.103 23 5 22.103 5 21C5 19.897 4.103 19 3 19Z" fill="#FDFDFD"/>
<path d="M5.5 13H0.5C0.224 13 0 12.776 0 12.5C0 12.224 0.224 12 0.5 12H5.5C5.776 12 6 12.224 6 12.5C6 12.776 5.776 13 5.5 13Z" fill="#FDFDFD"/>
<path d="M5.5 16H0.5C0.224 16 0 15.776 0 15.5C0 15.224 0.224 15 0.5 15H5.5C5.776 15 6 15.224 6 15.5C6 15.776 5.776 16 5.5 16Z" fill="#FDFDFD"/>
<path d="M5.5 10H0.5C0.224 10 0 9.776 0 9.5C0 9.224 0.224 9 0.5 9H5.5C5.776 9 6 9.224 6 9.5C6 9.776 5.776 10 5.5 10Z" fill="#FDFDFD"/>
<path d="M22.5 24H9.5C8.673 24 8 23.327 8 22.5V9.5C8 8.673 8.673 8 9.5 8H22.5C23.327 8 24 8.673 24 9.5V22.5C24 23.327 23.327 24 22.5 24ZM9.5 9C9.225 9 9 9.225 9 9.5V22.5C9 22.775 9.225 23 9.5 23H22.5C22.775 23 23 22.775 23 22.5V9.5C23 9.225 22.775 9 22.5 9H9.5Z" fill="#FDFDFD"/>
<path d="M16 15C15.173 15 14.5 14.327 14.5 13.5C14.5 12.673 15.173 12 16 12C16.827 12 17.5 12.673 17.5 13.5C17.5 14.327 16.827 15 16 15ZM16 13C15.725 13 15.5 13.225 15.5 13.5C15.5 13.775 15.725 14 16 14C16.275 14 16.5 13.775 16.5 13.5C16.5 13.225 16.275 13 16 13Z" fill="#FDFDFD"/>
<path d="M18.5 19C18.224 19 18 18.776 18 18.5V18C18 17.448 17.552 17 17 17H15C14.448 17 14 17.448 14 18V18.5C14 18.776 13.776 19 13.5 19C13.224 19 13 18.776 13 18.5V18C13 16.897 13.897 16 15 16H17C18.103 16 19 16.897 19 18V18.5C19 18.776 18.776 19 18.5 19Z" fill="#FDFDFD"/>
</g>
<defs>
<clipPath id="clip0_29166_8941">
<rect width="24" height="24" fill="white"/>
</clipPath>
</defs>
</svg>
