<svg width="40" height="40" viewBox="0 0 40 40" fill="none" xmlns="http://www.w3.org/2000/svg">
<g id="vuesax/bulk/star">
<g id="star">
<g id="Group">
<path id="Vector" d="M29.7919 15.2746L29.7919 15.2747L29.8021 15.2764L34.0517 15.9763C34.0518 15.9763 34.0519 15.9763 34.0519 15.9763C35.3238 16.1871 35.9354 16.7219 36.1072 17.2584C36.2793 17.7959 36.0926 18.5918 35.1791 19.5135C35.1788 19.5138 35.1786 19.514 35.1783 19.5143L31.8631 22.8295C31.513 23.1795 31.261 23.6704 31.1193 24.1665C30.9775 24.6629 30.9307 25.2184 31.0465 25.7133C31.0465 25.7134 31.0465 25.7135 31.0466 25.7136L31.9963 29.8125L31.9963 29.8127C32.361 31.3851 32.0596 32.2261 31.6217 32.5459C31.1841 32.8657 30.2921 32.897 28.9062 32.0703L28.9054 32.0698L24.9254 29.7051C24.9248 29.7048 24.9243 29.7045 24.9237 29.7041C24.4681 29.4292 23.8939 29.308 23.35 29.308C22.8062 29.308 22.232 29.4292 21.7764 29.7041C21.7758 29.7045 21.7752 29.7048 21.7747 29.7051L17.7957 32.0692C17.7955 32.0693 17.7952 32.0695 17.7949 32.0696C16.4089 32.8881 15.516 32.8581 15.0775 32.5391C14.6407 32.2213 14.339 31.3853 14.7038 29.8127L14.7038 29.8125L15.653 25.716C15.6531 25.7154 15.6533 25.7148 15.6534 25.7142C15.7698 25.2255 15.7221 24.6735 15.5808 24.179C15.4392 23.6832 15.1881 23.1912 14.8422 22.8348L14.8422 22.8347L14.8369 22.8295L11.5203 19.5128C10.6073 18.5998 10.4209 17.808 10.5929 17.2709C10.7651 16.733 11.3782 16.1949 12.6497 15.9761C12.6503 15.976 12.6508 15.9759 12.6514 15.9758L16.897 15.2765C16.8972 15.2765 16.8974 15.2764 16.8976 15.2764C17.356 15.2017 17.8208 14.9713 18.2068 14.6842C18.5922 14.3975 18.9454 14.0197 19.1483 13.6045L21.4973 8.90662L21.4973 8.90662L21.499 8.90309C22.0888 7.69993 22.7851 7.27051 23.3376 7.27051C23.8922 7.27051 24.5968 7.70264 25.2032 8.90735C25.2033 8.90749 25.2034 8.90764 25.2034 8.90778L27.5505 13.602C27.5509 13.6028 27.5513 13.6037 27.5517 13.6045C27.7556 14.0215 28.1102 14.3953 28.4948 14.6791C28.8812 14.9642 29.3418 15.1908 29.7919 15.2746ZM28.65 32.4997L24.6667 30.133C23.95 29.6997 22.75 29.6997 22.0334 30.133L18.05 32.4997C15.2 34.183 13.4667 32.933 14.2167 29.6997L15.1667 25.5997C15.35 24.833 15.0334 23.7497 14.4834 23.183L28.65 32.4997Z" fill="#F7B814" stroke="black"/>
</g>
<path id="Vector_2" d="M13.3333 9.08301H3.33331C2.92612 9.08301 2.58331 8.7402 2.58331 8.33301C2.58331 7.92582 2.92612 7.58301 3.33331 7.58301H13.3333C13.7405 7.58301 14.0833 7.92582 14.0833 8.33301C14.0833 8.7402 13.7405 9.08301 13.3333 9.08301Z" fill="#F7B814" stroke="black"/>
<path id="Vector_3" d="M8.33331 32.417H3.33331C2.92612 32.417 2.58331 32.0742 2.58331 31.667C2.58331 31.2598 2.92612 30.917 3.33331 30.917H8.33331C8.7405 30.917 9.08331 31.2598 9.08331 31.667C9.08331 32.0742 8.7405 32.417 8.33331 32.417Z" fill="#F7B814" stroke="black"/>
<path id="Vector_4" d="M4.99998 20.75H3.33331C2.92612 20.75 2.58331 20.4072 2.58331 20C2.58331 19.5928 2.92612 19.25 3.33331 19.25H4.99998C5.40717 19.25 5.74998 19.5928 5.74998 20C5.74998 20.4072 5.40717 20.75 4.99998 20.75Z" fill="#F7B814" stroke="black"/>
</g>
</g>
</svg>
