<svg width="24" height="24" viewBox="0 0 24 24" fill="none" xmlns="http://www.w3.org/2000/svg">
<path d="M16.7001 19.73H7.30006C6.56006 19.73 5.81006 19.2 5.56006 18.51L1.42006 6.91998C0.910057 5.45998 1.28006 4.78998 1.68006 4.48998C2.08006 4.18998 2.83006 4.00998 4.09006 4.90998L7.99006 7.69998C8.11006 7.76998 8.22006 7.79998 8.30006 7.77998C8.39006 7.74998 8.46006 7.66998 8.51006 7.52998L10.2701 2.83998C10.8001 1.43998 11.5801 1.22998 12.0001 1.22998C12.4201 1.22998 13.2001 1.43998 13.7301 2.83998L15.4901 7.52998C15.5401 7.65998 15.6101 7.74998 15.7001 7.77998C15.7901 7.80998 15.9001 7.77998 16.0101 7.68998L19.6701 5.07998C21.0101 4.11998 21.7901 4.30998 22.2201 4.61998C22.6401 4.93998 23.0301 5.64998 22.4801 7.19998L18.4401 18.51C18.1901 19.2 17.4401 19.73 16.7001 19.73ZM2.68006 5.80998C2.70006 5.94998 2.74006 6.14998 2.84006 6.40998L6.98006 18C7.02006 18.1 7.20006 18.23 7.30006 18.23H16.7001C16.8101 18.23 16.9901 18.1 17.0201 18L21.0601 6.69998C21.2001 6.31998 21.2401 6.05998 21.2501 5.90998C21.1001 5.95998 20.8701 6.06998 20.5401 6.30998L16.8801 8.91998C16.3801 9.26998 15.7901 9.37998 15.2601 9.21998C14.7301 9.05998 14.3001 8.63998 14.0801 8.06998L12.3201 3.37998C12.1901 3.02998 12.0701 2.85998 12.0001 2.77998C11.9301 2.85998 11.8101 3.02998 11.6801 3.36998L9.92006 8.05998C9.71006 8.62998 9.28006 9.04998 8.74006 9.20998C8.21006 9.36998 7.61006 9.25998 7.12006 8.90998L3.22006 6.11998C2.99006 5.95998 2.81006 5.85998 2.68006 5.80998Z" fill="#FDFDFD"/>
<path d="M17.5 22.75H6.5C6.09 22.75 5.75 22.41 5.75 22C5.75 21.59 6.09 21.25 6.5 21.25H17.5C17.91 21.25 18.25 21.59 18.25 22C18.25 22.41 17.91 22.75 17.5 22.75Z" fill="#FDFDFD"/>
<path d="M14.5 14.75H9.5C9.09 14.75 8.75 14.41 8.75 14C8.75 13.59 9.09 13.25 9.5 13.25H14.5C14.91 13.25 15.25 13.59 15.25 14C15.25 14.41 14.91 14.75 14.5 14.75Z" fill="#FDFDFD"/>
</svg>
